# xmcd
#
# Track frame offsets:
#	150
#	3942
#	19302
#	32967
#	54450
#	69602
#	83035
#	93432
#	107295
#	127917
#	147282
#	165360
#	183525
#	205365
#	221330
#	237347
#
# Disc length: 3229 seconds
#
# Revision: 0
# Processed by: cddbd v1.4PL0 Copyright (c) Steve Scherf et al.
# Submitted via: audiograbber 1.81.02
#
DISCID=d20c9b10
DTITLE=Robbie Bartlett - One Girl's Opinion
DYEAR=2000
DGENRE=R&B
TTITLE0=One Girl's Opinion
TTITLE1=I Can't Stand Up For Falling Down
TTITLE2=Is This Love
TTITLE3=Black Coffee In Bed
TTITLE4=Love Can Be Fun
TTITLE5=Be Good To Yourself
TTITLE6=The Melody Lingers On
TTITLE7=Change Is Coming
TTITLE8=At Last
TTITLE9=I Can't Stop
TTITLE10=Don't Do Me Wrong
TTITLE11=Work To Do
TTITLE12=Stalking
TTITLE13=Keep On Loving Me
TTITLE14=Be By Your Side
TTITLE15=Amazing Grace
EXTD=
EXTT0=
EXTT1=
EXTT2=
EXTT3=
EXTT4=
EXTT5=
EXTT6=
EXTT7=
EXTT8=
EXTT9=
EXTT10=
EXTT11=
EXTT12=
EXTT13=
EXTT14=
EXTT15=
PLAYORDER=
